<mxfile host="app.diagrams.net" modified="2024-02-21T02:39:48.495Z" agent="Mozilla/5.0 (Windows NT 10.0; Win64; x64) AppleWebKit/537.36 (KHTML, like Gecko) Chrome/121.0.0.0 Safari/537.36" version="23.1.5" etag="LB5KHG41LT2K0iSV6b50" type="github">
  <diagram name="第 1 页" id="1Jv4I5vn7Zk7EEgFjA-0">
    <mxGraphModel>
      <root>
        <mxCell id="0" />
        <mxCell id="1" parent="0" />
      </root>
    </mxGraphModel>
  </diagram>
</mxfile>
